<svg viewBox="0 0 1399 1024" version="1.1" xmlns="http://www.w3.org/2000/svg"><path d="M504.463015 863.529313H396.300226c-3.545993 0-6.649987-3.102994-6.649987-6.649987s3.103994-6.648987 6.649987-6.648987h108.162789c3.545993 0 6.649987 3.102994 6.649987 6.649987s-3.103994 6.648987-6.649987 6.648987z m418.022183 0H555.884914c-3.546993 0-6.649987-3.102994-6.649987-6.649987s3.102994-6.648987 6.649987-6.648987h366.599284c3.546993 0 6.649987 3.102994 6.649987 6.649987s-2.659995 6.648987-6.649987 6.648987z m66.49287 0h-35.019931c-3.545993 0-6.649987-3.102994-6.649987-6.649987s3.103994-6.648987 6.649987-6.648987h35.019931c3.545993 0 6.649987 3.102994 6.649987 6.649987s-2.659995 6.648987-6.649987 6.648987z" fill="#ECEBEB"></path><path d="M486.731049 828.066383V301.88141c0-17.731965 14.185972-31.916938 31.916938-31.916937h378.569261c17.731965 0 31.916938 14.184972 31.916937 31.916937v526.183973H486.731049z" fill="#F7F7F7"></path><path d="M518.648987 443.734133a59.399884 59.399884 0 1 0 118.800768 0 59.399884 59.399884 0 1 0-118.801768 0zM699.066635 558.989908l50.9789-80.678842s23.049955-38.565925 44.328913-1.772997 89.987824 163.129681 89.987825 163.129682 27.926945 33.689934-8.865983 44.329913H550.564925s-42.111918 0.885998-17.287967-30.58694l52.750897-61.174881s19.947961-32.359937 53.638896-15.514969c0 0.443999 39.009924 23.050955 59.399884-17.730966z" fill="#ECEBEB"></path><path d="M935.783172 455.70311c-3.545993 0-6.649987 3.102994-6.649987 6.649987v52.307898c0 3.545993 3.103994 6.649987 6.649987 6.649987s6.649987-3.103994 6.649987-6.649987v-52.307898c0-3.546993-3.102994-6.649987-6.649987-6.649987z m-17.730965-219.427571H623.264783c-3.546993 0-6.649987 3.102994-6.649987 6.648987s3.102994 6.649987 6.649987 6.649987h294.787424c6.205988 0 11.081978 4.87499 11.081978 11.081978v175.099658c0 3.544993 3.102994 6.647987 6.649987 6.647987s6.648987-3.102994 6.648987-6.648987v-175.099658c0-13.297974-11.082978-24.379952-24.380952-24.379952z m-359.064299 13.297974h35.019932c3.545993 0 6.648987-3.102994 6.648987-6.649987s-3.102994-6.647987-6.649987-6.647987h-35.019932c-3.545993 0-6.648987 3.102994-6.648987 6.648987s3.102994 6.649987 6.649987 6.649987zM935.783172 746.500542c-3.545993 0-6.649987 3.102994-6.649987 6.649987v56.739889c0 6.206988-4.87499 11.082978-11.080978 11.082979h-441.959137c-6.206988 0-11.082978-4.87599-11.082978-11.081979V260.656491c0-6.206988 4.87599-11.082978 11.082978-11.082978h50.977901c3.545993 0 6.649987-3.102994 6.649987-6.649987s-3.103994-6.647987-6.649987-6.647987h-50.977901c-13.299974 0-24.380952 11.081978-24.380952 24.379952v549.235927c0 13.298974 11.081978 24.379952 24.379952 24.379953h441.959137c13.299974 0 24.381952-11.080978 24.381952-24.379953V753.150529c0-3.546993-3.102994-6.649987-6.649987-6.649987z" fill="#BBBBBB"></path><path d="M879.928281 529.732965c57.184888 0 103.729797 46.544909 103.729798 103.729798 0 57.183888-46.544909 103.729797-103.729798 103.729797-34.132933 0-65.605872-16.401968-85.110833-44.329913h40.339921c32.802936 24.824952 79.347845 18.174965 104.172796-14.184973 24.823952-32.802936 18.173965-79.348845-14.185972-104.172796-20.39096-15.51497-47.874906-19.504962-71.81286-9.751981-4.87599-8.865983-9.308982-17.288966-14.184972-26.154949 12.411976-5.761989 26.596948-8.864983 40.78292-8.864983z" fill="#FFFFFF"></path><path d="M897.660247 646.317738s29.256943 35.019932-9.308982 46.10191h-53.194896c-32.802936-24.823952-39.009924-71.369861-14.184972-104.172797 8.422984-11.081978 19.504962-19.504962 31.916937-24.380952a49636.557054 49636.557054 0 0 0 44.771913 82.451839z" fill="#ECEBEB"></path><path d="M838.703362 538.154949c4.87599 8.422984 9.308982 17.287966 14.184972 26.153949-38.122926 15.071971-57.183888 58.070887-42.112918 96.193812 4.87699 12.855975 13.299974 23.937953 24.380953 31.916938H794.818448c-32.802936-46.988908-21.277958-111.708782 25.709949-144.069719 5.763989-3.988992 11.525977-7.091986 18.175965-10.19498z" fill="#FFFFFF"></path><path d="M1090.49187 789.500458l-77.575848-77.575848c-1.772997-1.329997-3.102994-3.102994-5.31999-3.989993l-44.328913 44.329914 3.989992 5.318989 77.575848 77.574849c12.411976 12.412976 32.802936 12.412976 45.214912 0s12.855975-33.245935 0.443999-45.657911z" fill="#F7F7F7"></path><path d="M961.051123 633.461763c0-44.771913-36.349929-81.121842-80.678842-81.121842-44.771913 0-81.121842 36.349929-81.121842 80.679843 0 25.266951 11.968977 49.203904 31.916938 64.719873 14.184972 10.637979 31.029939 16.400968 48.761904 16.400968 44.771913 0 80.678842-35.90593 81.121842-80.678842z m-81.121842 67.379868c-14.628971 0-29.256943-4.87599-40.78292-13.740973-29.699942-22.607956-35.462931-65.163873-12.854975-94.864815 7.535985-9.751981 17.287966-17.287966 28.812944-22.163956 34.576932-13.741973 74.029855 3.102994 87.771828 38.122925 13.741973 34.576932-3.102994 74.029855-38.122925 87.770829-7.979984 3.546993-16.401968 4.87699-24.823952 4.87699z" fill="#BBBBBB"></path><path d="M1094.923861 784.623468l-77.574848-77.574849c-1.773997-1.773997-3.989992-3.546993-6.205988-4.87699l-4.432991-3.102994-12.411976 12.412975-20.39196-20.39196c31.916938-52.307898 15.51497-120.574765-36.792928-152.491702-52.307898-31.915938-120.574765-15.51497-152.491702 36.792928-31.916938 52.308898-15.51497 120.574765 36.792928 152.491702 41.225919 25.267951 93.534817 20.834959 130.327745-10.638979l18.617964 18.617964-15.071971 15.07197 3.102994 4.432992c1.329997 2.216996 3.102994 4.432991 4.875991 6.205988l77.575848 77.575848c15.51497 14.628971 39.895922 14.184972 54.524894-1.329997 14.184972-15.071971 14.184972-38.122926-0.444-53.194896z m-294.786424-95.749813c-11.525977-16.401968-17.288966-35.462931-17.288966-55.411892 0-38.565925 23.050955-73.585856 58.070887-89.099826 12.411976-5.31999 25.267951-7.979984 39.009923-7.979985 53.637895 0 97.07981 43.441915 97.079811 96.636812 0 23.494954-8.421984 46.10191-23.936953 63.833875l-9.309982 9.308982c-40.338921 35.019932-101.512802 31.029939-136.532734-9.309982-2.659995-2.215996-4.87599-5.31899-7.091986-7.977984z m160.913686 19.060962l1.329997-1.329997 3.989993-3.989992 18.616963 18.618963-5.318989 5.31999-18.617964-18.618964z m124.120758 121.904762c-9.751981 9.751981-25.70995 9.751981-35.90593 0l-77.575849-77.575848 7.091986-7.091986 24.380953-24.380953 4.432991-4.432991 77.575849 77.574848c10.19598 9.752981 10.638979 25.71095 0 35.90693 0.442999 0 0.442999 0 0 0z" fill="#BBBBBB"></path><path d="M846.682346 594.895838a7.979984 7.979984 0 1 0 15.957969 0 7.979984 7.979984 0 1 0-15.957969 0zM841.806356 668.925694c-1.329997 0-2.659995-0.443999-3.546993-1.772997-26.153949-33.246935 3.546993-60.730881 3.989992-60.730881 1.772997-1.772997 4.432991-1.329997 6.205988 0.442999 1.772997 1.772997 1.329997 4.432991-0.442999 6.205988-14.184972 12.855975-15.51497 34.576932-2.659995 48.761904 1.329997 1.772997 1.329997 4.87599-0.885998 6.205988-0.886998 0.442999-1.773997 0.886998-2.659995 0.886999z" fill="#FFFFFF"></path><path d="M1177.8197 1010.701026H567.853891c-3.546993 0-6.649987 3.102994-6.649987 6.649987s3.102994 6.648987 6.649987 6.648987h609.965809c3.545993 0 6.648987-3.102994 6.648987-6.649987s-2.659995-6.648987-6.649987-6.648987z m152.047703 0h-86.440832c-3.546993 0-6.649987 3.102994-6.649987 6.649987s3.102994 6.648987 6.649987 6.648987h86.440832c3.545993 0 6.649987-3.102994 6.649987-6.649987s-3.103994-6.648987-6.649987-6.648987z m-963.268119 0h-95.749813c-3.545993 0-6.649987 3.102994-6.649987 6.649987s3.103994 6.648987 6.649987 6.648987h95.749813c3.546993 0 6.649987-3.102994 6.649987-6.649987s-3.102994-6.648987-6.649987-6.648987z m-167.562673 0h-59.843883c-3.545993 0-6.649987 3.102994-6.649987 6.649987s3.103994 6.648987 6.649987 6.648987h59.843883c3.546993 0 6.649987-3.102994 6.649987-6.649987s-3.102994-6.648987-6.649987-6.648987z" fill="#BBBBBB"></path><path d="M1165.407724 465.89909c-14.185972 0-25.267951 11.524977-25.267951 25.266951 0 14.185972 11.525977 25.267951 25.267951 25.26795 14.184972 0 25.266951-11.525977 25.26695-25.26795s-11.081978-25.266951-25.26695-25.266951z m0 37.679926a11.919977 11.919977 0 0 1-11.969977-11.969976 11.919977 11.919977 0 0 1 11.969977-11.967977 11.919977 11.919977 0 0 1 11.967976 11.968977 11.919977 11.919977 0 0 1-11.967976 11.967976z m78.461847 349.311318c-14.184972 0-25.267951 11.525977-25.267951 25.267951 0 14.184972 11.525977 25.266951 25.267951 25.26695 14.184972 0 25.266951-11.524977 25.26695-25.26695 0-14.185972-11.081978-25.267951-25.26695-25.267951z m0 37.235927a11.919977 11.919977 0 0 1-11.968977-11.967976 11.919977 11.919977 0 0 1 11.968977-11.969977 11.919977 11.919977 0 0 1 11.968976 11.969977 11.919977 11.919977 0 0 1-11.969976 11.967976zM941.103162 82.01184c-18.174965 0-33.246935 15.071971-33.246935 33.245935s15.071971 33.246935 33.246935 33.246935 33.246935-15.071971 33.246935-33.246935-14.629971-33.245935-33.246935-33.245935z m0 53.193896c-11.081978 0-19.947961-8.864983-19.947961-19.947961s8.865983-19.947961 19.947961-19.947961 19.947961 8.865983 19.947961 19.947961-8.865983 19.947961-19.947961 19.947961zM281.931449 268.191476c-18.173965 0-33.245935 15.071971-33.245935 33.246935s15.071971 33.246935 33.245935 33.246935 33.246935-15.071971 33.246935-33.246935-14.627971-33.246935-33.246935-33.246935z m0 53.194896c-11.081978 0-19.947961-8.865983-19.947961-19.947961s8.865983-19.947961 19.947961-19.947961 19.948961 8.865983 19.948961 19.947961-8.865983 19.947961-19.948961 19.947961z" fill="#F4F4F4"></path><path d="M220.757569 900.322242c-22.606956 0-41.225919-18.174965-41.22592-40.782921s18.174965-41.225919 40.782921-41.225919 41.225919 18.174965 41.225919 40.78292c0 23.050955-18.174965 41.225919-40.78292 41.22592z m0-68.709866c-15.51497 0-27.926945 12.411976-27.926946 27.483946 0 15.51497 12.411976 27.926945 27.483947 27.926946s27.926945-12.411976 27.926945-27.483947c0-15.51497-12.411976-27.926945-27.483946-27.926945z" fill="#EFEFEF"></path><path d="M555.440915 17.289966a17.287966 17.287966 0 1 0 34.576933 0 17.287966 17.287966 0 1 0-34.576933 0zM378.167261 343.298329a17.287966 17.287966 0 1 0 15.987969-30.65794 17.287966 17.287966 0 1 0-15.987969 30.65794zM959.952125 806.652425a17.287966 17.287966 0 1 0 15.986969-30.657941 17.287966 17.287966 0 1 0-15.986969 30.657941z" fill="#F2F2F2"></path><path d="M692.417648 72.701858l26.596948-21.277958v37.235927zM2.658995 644.544741h25.26795s-7.978984 30.58694-12.854974 25.266951S2.659995 644.544741 2.659995 644.544741z m66.49387-297.890418h13.298974v-18.617964z" fill="#DDDDDD"></path><path d="M1190.674674 333.355349h-19.504961v-17.287966c0-3.546993-3.102994-6.649987-6.649987-6.649987s-6.647987 3.102994-6.647987 6.649987v17.287966h-19.504962c-3.545993 0-6.649987 3.102994-6.649987 6.649987s3.103994 6.648987 6.649987 6.648987h19.504962v17.287966c0 3.545993 3.102994 6.649987 6.648987 6.649987s6.649987-3.103994 6.649987-6.649987v-17.287966h19.503961c3.545993 0 6.649987-3.102994 6.649987-6.649987s-3.103994-6.648987-6.649987-6.648987z m200.809608-176.429655h-14.627971v-13.297975c0-3.545993-3.102994-6.649987-6.649987-6.649987s-6.648987 3.103994-6.648987 6.649987v13.298975h-14.627972c-3.546993 0-6.649987 3.102994-6.649987 6.648987s3.102994 6.649987 6.649987 6.649987h14.627972v13.297974c0 3.545993 3.102994 6.649987 6.649987 6.649987s6.648987-3.103994 6.648987-6.649987v-13.298974h14.627971c3.546993 0 6.649987-3.102994 6.649987-6.648987 0-3.989992-2.659995-6.649987-6.649987-6.649987z m-936.226171-0.885999h-15.51497v-14.184972c0-3.546993-3.102994-6.649987-6.649987-6.649987s-6.648987 3.102994-6.648987 6.649987v14.184972H410.929197c-3.545993 0-6.649987 3.102994-6.649987 6.649987s3.103994 6.648987 6.649987 6.648987h15.51497v14.184973c0 3.545993 3.102994 6.649987 6.649987 6.649987s6.648987-3.103994 6.648987-6.649987v-14.184973h15.51497c3.545993 0 6.649987-3.102994 6.649987-6.649987 0-3.989992-3.103994-6.648987-6.649987-6.648987z m585.141857 791.271455h-6.205988v-4.875991c0-3.546993-3.102994-6.649987-6.649987-6.649987s-6.648987 3.102994-6.648987 6.649987v4.875991h-5.762989c-3.545993 0-6.649987 3.102994-6.649987 6.649987s3.103994 6.648987 6.649987 6.648987h6.205988v5.318989c0 3.545993 3.102994 6.649987 6.649987 6.649987s6.648987-3.103994 6.648987-6.649987v-4.87599h6.205988c3.545993 0 6.649987-3.102994 6.649987-6.649987s-3.546993-7.091986-7.092986-7.091986z m303.209408-245.139521h-6.205988v-4.875991c0-3.545993-3.102994-6.649987-6.649987-6.649987s-6.648987 3.103994-6.648987 6.649987v4.875991h-6.205988c-3.545993 0-6.649987 3.102994-6.649987 6.649987s3.103994 6.649987 6.649987 6.649987h6.205988v4.87499c0 3.546993 3.102994 6.649987 6.649987 6.649987s6.649987-3.102994 6.649987-6.649987v-4.87599h6.204988c3.545993 0 6.649987-3.102994 6.649987-6.649987s-3.103994-6.648987-6.649987-6.648987zM338.673339 472.992076h-7.979985v-7.092986c0-2.659995-1.772997-4.432991-4.432991-4.432991s-4.431991 1.772997-4.431992 4.432991v7.091986h-7.979984c-2.659995 0-4.432991 1.773997-4.432991 4.432992s1.773997 4.432991 4.432991 4.432991h7.979984v7.092986c0 2.659995 1.772997 4.432991 4.431992 4.432991s4.432991-1.772997 4.432991-4.432991v-7.092986h7.979985c2.659995 0 4.431991-1.772997 4.431991-4.432991s-1.772997-4.432991-4.431991-4.432992z m95.749813 317.837379h-15.071971v-13.741973c0-3.545993-3.102994-6.648987-6.648987-6.648987s-6.649987 3.102994-6.649987 6.649987v13.740973H390.539237c-3.546993 0-6.649987 3.102994-6.649987 6.649987s3.102994 6.649987 6.649987 6.649987h15.51497v13.740974c0 3.545993 3.102994 6.649987 6.648987 6.649987s6.649987-3.103994 6.649987-6.649987v-13.741974h15.070971c3.546993 0 6.649987-3.102994 6.649987-6.649987s-3.102994-6.648987-6.649987-6.648987z" fill="#BBBBBB"></path></svg>